<svg aria-hidden="true" style="position:absolute;width:0;height:0;overflow:hidden" xmlns="http://www.w3.org/2000/svg"><defs><symbol id="icon-succes" viewBox="0 0 32 32"><path fill="#0074ff" style="fill:var(--color1, #0074ff)" d="M20.89 28.565a3.543 3.543 0 0 1-2.11-.702l.009.007-2.16-1.58c-.255-.19-.577-.304-.925-.304s-.67.114-.929.307l.004-.003-2.16 1.58a3.57 3.57 0 0 1-5.654-3.281l-.001.016.29-2.66a1.555 1.555 0 0 0-.915-1.596l-.01-.004-2.445-1.08C2.617 18.7 1.75 17.451 1.75 16s.867-2.7 2.111-3.256l.023-.009 2.445-1.08a1.558 1.558 0 0 0 .925-1.607l.001.007-.29-2.66a3.57 3.57 0 0 1 5.664-3.258l-.01-.007 2.16 1.58c.255.19.577.304.925.304s.67-.114.929-.307l-.004.003 2.16-1.58a3.473 3.473 0 0 1 2.082-.687c.222 0 .439.021.649.06l-.022-.003a3.64 3.64 0 0 1 2.367 1.552l.008.013a1 1 0 1 1-1.668 1.104l-.002-.004a1.617 1.617 0 0 0-1.05-.693l-.01-.002a1.497 1.497 0 0 0-1.188.287l.003-.003-2.16 1.58c-.582.431-1.315.69-2.107.69s-1.525-.259-2.117-.697l.01.007-2.155-1.58A1.565 1.565 0 0 0 8.93 7.196l-.001-.008.29 2.655a3.556 3.556 0 0 1-2.057 3.646l-.022.009-2.45 1.08a1.57 1.57 0 0 0-.01 2.866l.01.004 2.45 1.05a3.562 3.562 0 0 1 2.103 3.667l.002-.016-.29 2.655a1.565 1.565 0 0 0 2.504 1.433l2.151-1.577c.582-.431 1.315-.69 2.107-.69s1.525.259 2.117.697l-.01-.007 2.16 1.58a1.565 1.565 0 0 0 2.499-1.442l.001.008-.29-2.655a3.55 3.55 0 0 1 2.053-3.641l.022-.009 2.45-1.08a1.57 1.57 0 0 0 .01-2.866l-.01-.004-1.33-.55a1 1 0 1 1 .811-1.827l-.006-.003 1.33.585c1.267.565 2.134 1.814 2.134 3.265s-.867 2.7-2.111 3.256l-.023.009-2.445 1.08a1.568 1.568 0 0 0-.93 1.607l-.001-.007.29 2.66a3.498 3.498 0 0 1-1.742 3.466l-.017.009a3.54 3.54 0 0 1-1.766.465h-.025.001z"/><path fill="#ffb300" style="fill:var(--color2, #ffb300)" d="M15.82 19.5h-.001a.997.997 0 0 1-.709-.295L10.805 14.9a1 1 0 1 1 1.413-1.402l.001.002 3.6 3.6 12.72-12.74a1 1 0 0 1 1.409 1.416l.001-.001L16.524 19.2a1 1 0 0 1-.704.3h-.001z"/></symbol><symbol id="icon-phone" viewBox="0 0 32 32"><path d="M21.468 17.812zm.607-.604zm3.222-.422zm2.547 1.385zm.718 4.34zm-1.894 1.883zm-1.766.893zm-13.148-5.652zM5.337 7.661zm8.633 1.936zm.209-3.539zm-1.681-2.246zm-4.149-.379zM6.256 5.514zm9.828 9.816zm6.089 3.191.607-.604-1.41-1.418-.607.604 1.41 1.418zm2.646-.857 2.547 1.385.955-1.757-2.547-1.385-.955 1.757zm3.038 4.137-1.894 1.883 1.41 1.418 1.894-1.883-1.41-1.418zm-3.048 2.49c-1.933.18-6.935.02-12.35-5.365l-1.41 1.418c5.909 5.876 11.534 6.163 13.946 5.938l-.186-1.991zm-12.35-5.365C7.297 13.793 6.442 9.477 6.336 7.604l-1.997.113c.134 2.357 1.193 7.141 6.71 12.627l1.41-1.418zm1.834-8.24.382-.38-1.41-1.418-.382.38 1.41 1.418zm.686-5.227-1.681-2.246-1.601 1.199 1.681 2.246 1.601-1.199zM7.644 2.724 5.551 4.805l1.41 1.418 2.093-2.081-1.41-1.418zm5.944 7.253c-.705-.709-.706-.708-.707-.707l-.002.002-.004.004-.008.009-.018.019-.042.048a2.067 2.067 0 0 0-.318.558c-.136.361-.209.838-.118 1.428.179 1.154.974 2.678 3.009 4.701l1.41-1.418c-1.905-1.894-2.358-3.046-2.443-3.59-.04-.259.001-.386.013-.416.007-.019.01-.021.002-.008a.315.315 0 0 1-.022.029c-.005.007-.012.014-.02.022l-.012.013-.007.007-.004.004-.002.002c-.001 0-.002.002-.707-.707zm1.791 6.062c2.036 2.024 3.567 2.812 4.723 2.99.591.091 1.067.018 1.428-.116.177-.066.318-.144.425-.215a1.73 1.73 0 0 0 .211-.168l.004-.004.002-.002s.002-.002-.703-.711-.704-.71-.703-.711l.002-.002.004-.004.007-.007.013-.012.022-.019a.554.554 0 0 1 .029-.022c.012-.008.01-.005-.01.003-.033.012-.163.054-.426.013-.551-.084-1.712-.538-3.616-2.431l-1.41 1.418zM13.298 3.213c-1.359-1.815-4.032-2.103-5.655-.489l1.41 1.418c.709-.705 1.968-.633 2.643.269l1.601-1.199zM6.336 7.604c-.026-.461.185-.944.625-1.381l-1.41-1.418c-.716.712-1.28 1.721-1.212 2.913l1.997-.113zm19.627 16.081c-.366.364-.759.57-1.154.606l.186 1.991c.979-.091 1.782-.586 2.379-1.179l-1.41-1.418zM14.675 10.306c1.313-1.305 1.41-3.37.304-4.847l-1.601 1.199c.538.719.458 1.662-.113 2.23l1.41 1.418zm12.692 8.743c1.09.593 1.26 1.987.49 2.752l1.41 1.418c1.787-1.777 1.236-4.742-.945-5.928l-.955 1.757zm-4.587-1.132c.512-.509 1.336-.635 2.039-.253l.955-1.757c-1.445-.785-3.238-.569-4.405.592l1.41 1.418z"/></symbol><symbol id="icon-burger" viewBox="0 0 24 24"><path d="M2.571 6c0-.473.384-.857.857-.857h17.143a.857.857 0 0 1 0 1.714H3.428A.857.857 0 0 1 2.571 6zm0 6c0-.473.384-.857.857-.857h17.143a.857.857 0 0 1 0 1.714H3.428A.857.857 0 0 1 2.571 12zm.858 5.143a.857.857 0 0 0 0 1.714h17.143a.857.857 0 0 0 0-1.714H3.429z"/></symbol><symbol id="icon-email" viewBox="0 0 20 20"><path d="M3.238 4.364c-.567.526-.946 1.38-.946 2.719v5.833c0 1.339.379 2.193.946 2.719.575.534 1.441.823 2.596.823h8.333c1.154 0 2.021-.289 2.596-.823.567-.526.946-1.38.946-2.719V7.083c0-1.339-.379-2.193-.946-2.719-.575-.534-1.441-.823-2.596-.823H5.834c-1.154 0-2.021.289-2.596.823zm-.851-.916c.883-.82 2.1-1.157 3.446-1.157h8.333c1.346 0 2.563.336 3.446 1.157.892.828 1.346 2.058 1.346 3.635v5.833c0 1.578-.454 2.807-1.346 3.635-.883.82-2.1 1.157-3.446 1.157H5.833c-1.346 0-2.563-.336-3.446-1.157-.892-.828-1.346-2.058-1.346-3.635V7.083c0-1.577.454-2.807 1.346-3.635z"/><path d="M16.136 6.092a.625.625 0 0 1-.112.877l-4.623 3.572a2.29 2.29 0 0 1-2.802 0L3.976 6.969a.625.625 0 0 1 .765-.989l4.623 3.572c.375.29.899.29 1.274 0l4.623-3.572a.625.625 0 0 1 .877.112z"/></symbol><symbol id="icon-user" viewBox="0 0 24 24"><path d="M21.773 20.245c-.639-1.153-1.617-1.956-2.558-2.524s-1.86-.905-2.398-1.107c-.41-.152-.842-.349-1.139-.559a1.397 1.397 0 0 1-.324-.295c-.064-.088-.077-.143-.077-.186v-1.608a2.34 2.34 0 0 1 .191-.385c.118-.195.276-.391.434-.687.131-.247.249-.557.339-.963.08-.039.159-.084.237-.138.238-.164.439-.403.603-.716.166-.314.31-.708.462-1.241l-.001.004.001-.004c.079-.277.116-.52.116-.741.003-.355-.108-.663-.292-.871a1.03 1.03 0 0 0-.203-.177c.023-.273.065-.636.105-1.055.046-.486.087-1.041.087-1.616-.002-.91-.099-1.87-.484-2.699a3.05 3.05 0 0 0-.833-1.094 2.941 2.941 0 0 0-1.259-.581c-.335-.257-.659-.481-1.063-.637-.436-.169-.939-.247-1.604-.247-.21 0-.437.008-.685.023-.694.003-1.262.088-1.811.086-.383 0-.76-.037-1.198-.162l-.234-.067-.187.156c-.575.488-.883 1.215-1.072 2.024-.186.812-.247 1.724-.247 2.629 0 1.181.106 2.347.195 3.222a1.097 1.097 0 0 0-.201.164c-.198.207-.322.528-.319.9 0 .221.038.464.116.74v.001c.204.711.389 1.176.639 1.529.125.175.269.319.426.428.077.054.156.098.235.137.142.608.382 1.049.587 1.368.116.181.218.324.281.431.06.101.078.158.082.184v1.661c0 .033-.013.092-.084.187-.103.14-.328.318-.597.468a5.457 5.457 0 0 1-.851.382c-.732.259-2.121.765-3.35 1.749-.615.493-1.192 1.109-1.616 1.879s-.691 1.692-.69 2.765c0 .186.008.378.024.573l.035.421h20.812l.035-.421c.016-.195.024-.386.024-.572a5.615 5.615 0 0 0-.692-2.762zm-.23 2.836H2.456l-.003-.075c.001-.923.223-1.679.576-2.322.529-.962 1.371-1.673 2.225-2.188s1.709-.829 2.241-1.017c.42-.149.907-.364 1.322-.652.208-.145.399-.308.552-.51.152-.199.271-.451.271-.742v-1.724l-.003-.024a1.388 1.388 0 0 0-.208-.567c-.141-.235-.3-.44-.445-.706a3.258 3.258 0 0 1-.359-1.034l-.046-.263-.251-.09a1.1 1.1 0 0 1-.266-.129c-.102-.072-.196-.169-.316-.392-.118-.221-.248-.562-.39-1.063a1.83 1.83 0 0 1-.082-.489c.004-.197.047-.243.071-.273a.229.229 0 0 1 .121-.062l.399-.089-.043-.407c-.094-.893-.225-2.181-.225-3.456 0-.862.061-1.717.224-2.423.135-.596.348-1.07.612-1.371.424.097.817.132 1.184.132.648-.001 1.213-.088 1.836-.087h.015l.016-.001c.233-.014.442-.021.63-.021.598 0 .971.069 1.273.185s.561.294.911.567l.09.07.112.02c.41.074.714.22.96.418.366.296.612.734.767 1.276.155.54.211 1.174.21 1.804 0 .53-.039 1.058-.083 1.529s-.095.884-.117 1.205a4.235 4.235 0 0 1-.015.162l-.041.391.381.1a.216.216 0 0 1 .111.062c.023.03.064.081.067.269 0 .114-.02.275-.081.487v.001c-.189.668-.359 1.049-.503 1.248-.072.1-.134.159-.204.207s-.151.088-.266.129l-.251.09-.046.263a3.64 3.64 0 0 1-.19.708c-.105.262-.217.424-.362.638a3.568 3.568 0 0 0-.452.852l-.027.075v1.78c-.001.281.109.532.256.73.223.299.527.515.856.704.33.187.688.34 1.025.466.713.265 1.999.745 3.086 1.615.543.434 1.034.96 1.388 1.6.354.641.576 1.395.577 2.317l-.003.074z"/></symbol><symbol id="icon-city" viewBox="0 0 20 20"><path d="M6.25 2.427 1.875 4.615v12.886h16.25V6.251h-7.5V4.615L6.25 2.427zm0 1.396 3.125 1.563V16.25h-6.25V5.386L6.25 3.823zM4.375 6.25V7.5h1.25V6.25h-1.25zm2.5 0V7.5h1.25V6.25h-1.25zm3.75 1.25h6.25v8.75h-6.25V7.5zm-6.25 1.25V10h1.25V8.75h-1.25zm2.5 0V10h1.25V8.75h-1.25zm5 0V10h1.25V8.75h-1.25zm2.5 0V10h1.25V8.75h-1.25zm-10 2.5v1.25h1.25v-1.25h-1.25zm2.5 0v1.25h1.25v-1.25h-1.25zm5 0v1.25h1.25v-1.25h-1.25zm2.5 0v1.25h1.25v-1.25h-1.25zm-10 2.5V15h1.25v-1.25h-1.25zm2.5 0V15h1.25v-1.25h-1.25zm5 0V15h1.25v-1.25h-1.25zm2.5 0V15h1.25v-1.25h-1.25z"/></symbol><symbol id="icon-ice-cream" viewBox="0 0 20 20"><path fill="#f1c84f" style="fill:var(--color2, #f1c84f)" d="m5.63 7.425 4.307 12.041 5.001-11.77z"/><path fill="#f0841b" style="fill:var(--color3, #f0841b)" d="M14.13 7.991 9.682 18.759l.367.973L14.795 8z"/><path style="fill:var(--color4, #000)" d="M12.051 14.436c-.055 0-.099-.044-.099-.099 0-.013.002-.025.007-.037v.001l2.875-7.355h-9.78l1.161 2.97c.004.01.006.022.006.034 0 .055-.044.099-.099.099-.041 0-.076-.025-.091-.06v-.001l-1.266-3.24h10.361l-2.981 7.625c-.015.037-.051.063-.092.063zm-.469 1.199c-.055 0-.099-.044-.099-.099 0-.013.002-.025.007-.037v.001l.252-.643c.015-.037.051-.063.092-.063.013 0 .025.002.037.007h-.001c.037.015.063.051.063.092 0 .013-.002.025-.007.037v-.001l-.251.643c-.015.037-.051.063-.092.063zM9.944 20l-2.985-7.637c-.004-.011-.007-.023-.007-.036 0-.042.026-.077.062-.092h.001c.011-.004.023-.007.036-.007.042 0 .077.026.092.062v.001l2.801 7.165 1.301-3.328c.02-.051.077-.076.128-.056.037.015.063.051.063.092 0 .013-.003.025-.007.037V16.2L9.944 20zm-3.182-8.313c-.042 0-.077-.026-.092-.062v-.001l-.324-.83c-.004-.011-.007-.023-.007-.036 0-.042.026-.077.062-.092h.001c.011-.004.023-.007.036-.007.042 0 .077.026.092.062v.001l.324.83c.004.011.007.023.007.036 0 .055-.044.099-.099.099z"/><path fill="#ec7699" style="fill:var(--color5, #ec7699)" d="M6.113 3.495c0 1.851 1.838 3.351 4.106 3.351s4.106-1.5 4.106-3.351S12.487.144 10.219.144s-4.106 1.5-4.106 3.351z"/><path fill="#d8476d" style="fill:var(--color6, #d8476d)" d="M10.488.145c-.138 0-.274.006-.408.018 1.978.185 3.524 1.786 3.524 3.734 0 .877-.314 1.683-.839 2.322.988-.608 1.632-1.601 1.632-2.723 0-1.851-1.75-3.351-3.908-3.351z"/><path fill="#040000" style="fill:var(--color7, #040000)" d="M6.496 1.637c-.055 0-.099-.044-.099-.099 0-.026.01-.049.026-.067.215-.234.461-.448.733-.634.016-.011.035-.017.056-.017.034 0 .064.017.082.043.011.016.017.035.017.056 0 .034-.017.064-.043.082-.259.177-.494.381-.699.604-.018.02-.044.032-.073.032z"/><path fill="#040000" style="fill:var(--color7, #040000)" d="M9.944 7.711c-2.47 0-4.48-1.729-4.48-3.855 0-.566.139-1.112.414-1.621.017-.03.049-.051.086-.051.055 0 .099.044.099.099 0 .017-.004.032-.011.046v-.001c-.259.48-.39.994-.39 1.527 0 2.017 1.921 3.657 4.282 3.657s4.282-1.641 4.282-3.657c0-2.017-1.921-3.657-4.282-3.657-.684 0-1.338.134-1.943.397-.012.005-.025.008-.04.008-.04 0-.075-.024-.091-.059V.543c-.005-.012-.008-.025-.008-.04 0-.04.024-.075.059-.091h.001c.63-.275 1.31-.414 2.022-.414 2.47 0 4.48 1.729 4.48 3.855s-2.01 3.855-4.48 3.855z"/><path fill="#e5c569" style="fill:var(--color8, #e5c569)" d="M9.944 1.342c0 .085.069.155.155.155s.155-.069.155-.155c0-.085-.069-.155-.155-.155s-.155.069-.155.155zm.472-.309c0 .085.069.155.155.155s.155-.069.155-.155c0-.085-.069-.155-.155-.155s-.155.069-.155.155zm0 .618c0 .085.069.155.155.155s.155-.069.155-.155c0-.085-.069-.155-.155-.155s-.155.069-.155.155zm.827-.464c-.001.084-.07.152-.155.152s-.153-.068-.155-.152c.001-.084.07-.152.155-.152s.153.068.155.152zm-2.107.626c0 .112.091.203.203.203s.203-.091.203-.203c0-.112-.091-.203-.203-.203s-.203.091-.203.203zm2.107.409c0 .085-.069.155-.155.155s-.155-.069-.155-.155c0-.085.069-.155.155-.155.085 0 .155.069.155.155zM9.944.878c0 .085.069.155.155.155s.155-.069.155-.155c0-.085-.069-.155-.155-.155s-.155.069-.155.155zm1.299.773c0 .085-.069.155-.155.155s-.155-.069-.155-.155c0-.085.069-.155.155-.155.085 0 .155.069.155.155zm.296 0c0 .085.069.155.155.155s.155-.069.155-.155c0-.085-.069-.155-.155-.155s-.155.069-.155.155zm.155.726c0 .085.069.155.155.155s.155-.069.155-.155c0-.085-.069-.155-.155-.155s-.155.069-.155.155z"/><path style="fill:var(--color4, #000)" d="m8.625 8.887-.127-.152-.598.578.127.152zm.143-.138.943-.912-.003-.003-.27-.008-.798.772zm-1.012.702-1.049 1.014.069.208 1.107-1.07zm1.525 1.822-.127-.152-1.197 1.158.127.152zm.884-.855.943-.912-.127-.152-.943.912zm-.741.717.598-.578-.127-.152-.598.578zm-1.611 1.281-.345.334.069.208.404-.39zm4.632-4.202-.127-.152-.494.477.127.152zm-.637.615-.127-.152-.558.539.127.152zm.78-.753.152-.147-.276-.009-.003.003zm-2.096 4.335.598-.578-.127-.152-.598.578zm-.27-.014-1.197 1.158.127.152 1.197-1.157zm3.961-3.739.058-.147-.1.097zm-1.991 1.835.127.152.558-.539-.127-.152zM13.528 9.2l.127.152.408-.395.035-.089-.102-.122zm-.636.615.127.152.494-.477-.127-.152zm-1.787 1.728.127.152.943-.912-.127-.152zm-2.223 2.15-.832.805.069.208.89-.861zm2.523-.19.127.152.598-.578-.127-.152zm-1.355 1.586-.127-.152-.984.951.127.152zm2.224-2.15.351-.339.176-.446-.655.633zm-3.478 3.087-.18.174.069.208.238-.23zm1.269-1.227.127.152 1.197-1.157-.127-.152zm1.148 1.371.148-.375-.255.247zm-1.376 1.1-.654.633.069.208.712-.689zm.27.014.984-.951-.127-.152-.984.951zm4.034-8.676-.546-.653-.265-.008.669.799z"/><path style="fill:var(--color4, #000)" d="m13.998 8.746.102.122.083-.21-.042-.05zm-1.822 2.037.792.947.083-.21-.732-.875zm-1.195-1.429.143-.138-1.15-1.374-.26-.008-.003.003zm1.211 1.139-.941-1.124-.143.138.941 1.124zM9.714 7.834h-.006l.003.003z"/><path style="fill:var(--color4, #000)" d="m11.251 9.368-.127-.152-.143.138.127.152zm.798 1.263.127.152.143-.138-.127-.152zm.843-.816-.941-1.124-.143.138.941 1.124zm-.015.291.498.596.083-.21-.438-.524zm-1.053-1.567-.549-.656-.265-.008.671.802z"/><path style="fill:var(--color4, #000)" d="m11.951 8.691-.127-.152-.143.138.127.152zm.798 1.262.127.152.143-.138-.127-.152zm-2.4 2.597.913 1.092.143-.138-.913-1.092zm.015-.291-.941-1.124-.143.138.941 1.124zm1.026 1.535.518.619.083-.21-.458-.548zm-4.628-5.84-.152.127 1.146 1.37.143-.138zm1.265 1.511-.143.138 1.269 1.517.143-.138z"/><path style="fill:var(--color4, #000)" d="M8.027 9.465 7.9 9.313l-.143.138.127.152zm1.397 1.67-.127-.152-.143.138.127.152zm.925 1.415.143-.138-.127-.152-.143.138zm.913 1.091.127.152.143-.138-.127-.152zM8.64 8.597l-.684-.818-.265-.008.807.964zm3.363 4.328.143-.138-.913-1.092-.143.138zm-1.04-1.244.143-.138-.941-1.124-.143.138zm-1.069-1.277.143-.138-1.269-1.517-.143.138zm2.237 2.673.207.248.083-.21-.147-.176zM8.768 8.749l-.127-.152-.143.138.127.152zm1.397 1.669-.127-.152-.143.138.127.152zm.798 1.263.127.152.143-.138-.127-.152zm1.168 1.396.143-.138-.127-.152-.143.138zm.329-5.154-.003-.003-.265-.008.125.15zm.926 1.415.143-.138-.941-1.124-.143.138zm.127.152.231.276.083-.21-.171-.205z"/><path style="fill:var(--color4, #000)" d="m12.588 8.076-.127-.152-.143.138.127.152zm.925 1.414.143-.138-.127-.152-.143.138zm-2.383 6.89.055-.138-.094.091zm-.167-.199.143-.138-.913-1.092-.143.138zm-3.007-3.903-1.071-1.28.171.513.758.906zm1.196 1.429-.143.138.913 1.092.143-.138zM8.084 12.43l-.143.138.941 1.124.143-.138zm-.128-.152-.143.138.127.152.143-.138z"/><path style="fill:var(--color4, #000)" d="m9.025 13.555-.143.138.127.152.143-.138zm.897 1.382.127.152.143-.138-.127-.152zm1.041 1.244.127.152.094-.091.028-.071-.107-.128zm-.999 1.241.512.612.083-.21-.452-.541zm-1.025-1.534-.708-.846.171.513.395.472zm.127.152-.143.138.913 1.092.143-.138z"/><path style="fill:var(--color4, #000)" d="m8.939 15.888-.143.138.127.152.143-.138zm.898 1.382.127.152.143-.138-.127-.152zm-.294 1.717.378.452.083-.21-.632-.755z"/><path fill="#e5c569" style="fill:var(--color8, #e5c569)" d="M11.384 1.187c0 .085.069.155.155.155s.155-.069.155-.155c0-.085-.069-.155-.155-.155s-.155.069-.155.155zm-1.679.726c0 .085.069.155.155.155s.155-.069.155-.155c0-.085-.069-.155-.155-.155s-.155.069-.155.155zm2.379-.262c0 .085.069.155.155.155s.155-.069.155-.155c0-.085-.069-.155-.155-.155s-.155.069-.155.155z"/><path fill="#fff" style="fill:var(--color9, #fff)" d="M5.02 6.515s-1.536 2.267.96 1.322c0 0-.517 2.087 1.856.882.661-.336.832.84.832.84s1.067.462 1.771-1.197c.704-1.658.747.735 1.579.672s1.365-.735 1.493-1.344c.128-.609 1.088.504 1.195.756s1.374-1.203-.405-3.107c-1.152-1.233-1.649-1.38-1.819-.204s-.632.895-1.444-.279c-.393-.568-1.427-.166-1.9.398-.298.355-1.022.568-1.598-.335s-2.475.147-2.517 1.595z"/><path fill="#040000" style="fill:var(--color7, #040000)" d="M9.012 9.717c-.225 0-.377-.065-.383-.067l-.051-.022-.008-.055c-.033-.227-.189-.815-.508-.815-.055 0-.116.017-.181.05-.504.256-.922.386-1.243.386-.271 0-.478-.09-.617-.267-.218-.278-.201-.7-.169-.937-.744.258-1.183.232-1.341-.066-.228-.429.295-1.264.411-1.44.05-1.079 1.112-1.998 1.961-1.998.323 0 .578.132.738.381.248.389.547.594.863.594.258 0 .467-.139.576-.27.344-.41.932-.708 1.398-.708.288 0 .516.11.66.317.169.245.685.99.962.99.135 0 .24-.231.303-.669.055-.382.176-.891.578-.891.311 0 .72.302 1.411 1.042 1.261 1.35.994 2.423.821 2.822-.123.282-.306.479-.446.479-.06 0-.11-.033-.134-.089-.086-.202-.68-.875-.929-.875-.02 0-.057 0-.078.101-.134.637-.686 1.354-1.583 1.422-.423.032-.658-.44-.846-.816-.093-.187-.22-.442-.303-.442-.021 0-.134.025-.347.526-.486 1.145-1.159 1.316-1.518 1.316zm-.256-.233c.052.015.142.035.256.035.378 0 .916-.207 1.335-1.195.192-.453.351-.647.529-.647.205 0 .332.256.48.552.17.341.361.728.653.706.794-.06 1.284-.698 1.404-1.265.047-.225.191-.258.272-.258.363 0 .945.696 1.088.95.067-.048.209-.217.297-.508.132-.435.198-1.332-.843-2.447-.393-.42-.951-.979-1.267-.979-.069 0-.278 0-.382.721-.052.36-.161.839-.499.839-.27 0-.596-.312-1.125-1.075-.106-.154-.274-.232-.497-.232-.406 0-.941.274-1.246.637-.179.213-.451.341-.728.341-.27 0-.668-.119-1.03-.686-.153-.239-.395-.29-.57-.29-.689 0-1.733.77-1.764 1.835l-.001.029-.016.024c-.169.25-.573.963-.416 1.26.049.093.159.138.334.138.221 0 .532-.075.925-.224l.176-.067-.045.183c-.002.006-.149.624.101.943.1.128.251.19.461.19.29 0 .678-.122 1.153-.364.093-.047.184-.071.271-.071.481 0 .653.708.694.924z"/></symbol><symbol id="icon-user-heart" viewBox="0 0 24 24"><path d="M5.25 6c0-2.623 2.127-4.75 4.75-4.75S14.75 3.377 14.75 6s-2.127 4.75-4.75 4.75S5.25 8.623 5.25 6zM10 2.75C8.205 2.75 6.75 4.205 6.75 6S8.205 9.25 10 9.25 13.25 7.795 13.25 6 11.795 2.75 10 2.75zM3.976 13.664c1.579-.888 3.711-1.414 6.025-1.414s4.445.526 6.025 1.414c1.556.875 2.725 2.202 2.725 3.836v.102c.001 1.162.003 2.62-1.276 3.662-.629.513-1.51.877-2.7 1.118-1.193.241-2.748.369-4.774.369s-3.581-.127-4.774-.369c-1.19-.241-2.07-.605-2.7-1.118-1.279-1.041-1.278-2.5-1.276-3.662V17.5c0-1.634 1.169-2.96 2.725-3.836zm.735 1.308c-1.339.753-1.961 1.677-1.961 2.528 0 1.308.04 2.044.724 2.6.371.302.99.596 2.05.811 1.057.214 2.502.339 4.476.339s3.419-.125 4.476-.339c1.06-.215 1.68-.509 2.05-.811.683-.556.724-1.293.724-2.6 0-.851-.621-1.775-1.961-2.528-1.316-.74-3.184-1.222-5.289-1.222s-3.973.481-5.289 1.222zM16.69 7.447c-.855.378-1.44 1.252-1.44 2.253 0 .948.414 1.662.911 2.203.387.422.867.779 1.245 1.061.081.06.158.117.228.171l.002.001c.149.114.341.26.544.375.204.115.486.239.821.239s.617-.123.821-.239c.203-.115.395-.261.544-.375l.002-.001c.07-.054.147-.111.228-.171.378-.282.858-.638 1.245-1.06.496-.541.91-1.255.91-2.203 0-1-.585-1.874-1.44-2.253-.721-.319-1.558-.258-2.31.232-.752-.49-1.589-.551-2.31-.232zm.06 2.253c0-.412.24-.745.547-.881.266-.118.69-.13 1.171.354.141.142.332.221.532.221s.391-.08.532-.221c.481-.484.905-.472 1.171-.354.307.136.547.469.547.881 0 .464-.189.833-.516 1.189-.282.308-.618.559-.99.837-.094.07-.189.142-.287.216-.162.124-.275.207-.374.263-.04.023-.067.034-.082.04-.015-.006-.042-.017-.082-.04-.099-.056-.212-.139-.374-.263-.098-.075-.194-.146-.287-.216-.372-.278-.708-.529-.99-.837-.327-.357-.516-.725-.516-1.189z"/></symbol></defs></svg>