<svg aria-hidden="true" style="position: absolute; width: 0; height: 0; overflow: hidden;" xmlns="http://www.w3.org/2000/svg">
    <defs>
        <symbol id="icon-check" viewBox="0 0 24 24">
<path d="M12 0c-6.628 0-12 5.372-12 12s5.372 12 12 12 12-5.372 12-12-5.372-12-12-12zM12 23.25c-6.203 0-11.25-5.047-11.25-11.25s5.047-11.25 11.25-11.25 11.25 5.047 11.25 11.25-5.047 11.25-11.25 11.25z"></path>
<path d="M16.979 7.301l-7.041 7.823-2.967-2.967-0.53 0.53 3.527 3.527 7.57-8.411z"></path>
</symbol>

<symbol id="icon-success" viewBox="0 0 24 24">
<path d="M12 5.501l-0.54 0.52c0.003 0.003 0.007 0.007 0.010 0.010l0.53-0.53zM8.962 18.911v0zM15.038 18.911v0zM7.001 16.421c-0.32-0.263-0.792-0.217-1.056 0.102s-0.217 0.792 0.102 1.056l0.953-1.158zM2.342 13.412c0.199 0.363 0.654 0.497 1.018 0.298s0.497-0.654 0.298-1.018l-1.316 0.72zM13.47 8.030c0.293 0.293 0.768 0.293 1.061-0s0.293-0.768-0-1.061l-1.060 1.061zM2.75 9.137c0-2.151 1.215-3.955 2.874-4.713 1.612-0.737 3.777-0.542 5.835 1.597l1.081-1.040c-2.442-2.537-5.276-2.955-7.54-1.921-2.216 1.013-3.751 3.365-3.751 6.077h1.5zM8.497 19.5c0.512 0.404 1.062 0.834 1.619 1.16s1.193 0.59 1.883 0.59v-1.5c-0.31 0-0.674-0.121-1.126-0.385s-0.922-0.628-1.448-1.043l-0.929 1.178zM15.503 19.5c1.427-1.125 3.25-2.413 4.681-4.024 1.456-1.64 2.567-3.673 2.567-6.339h-1.5c0 2.197-0.899 3.891-2.188 5.343-1.315 1.48-2.972 2.647-4.488 3.842l0.929 1.178zM22.75 9.137c0-2.712-1.535-5.064-3.751-6.077-2.263-1.035-5.098-0.616-7.54 1.921l1.081 1.040c2.058-2.138 4.224-2.333 5.835-1.597 1.659 0.758 2.874 2.562 2.874 4.713h1.5zM14.574 18.322c-0.526 0.415-0.995 0.779-1.448 1.043s-0.817 0.385-1.126 0.385v1.5c0.69 0 1.326-0.265 1.883-0.59s1.107-0.756 1.619-1.16l-0.929-1.178zM9.426 18.322c-0.796-0.627-1.605-1.226-2.425-1.901l-0.953 1.158c0.83 0.683 1.707 1.335 2.45 1.921l0.929-1.178zM3.658 12.692c-0.561-1.026-0.908-2.188-0.908-3.555h-1.5c0 1.638 0.42 3.046 1.092 4.274l1.316-0.72zM11.47 6.031l2 1.999 1.060-1.061-2-1.999-1.060 1.061z"></path>
</symbol>
        <symbol id="icon-phone" viewBox="0 0 32 32">
            <path
                d="M21.468 17.812zm.607-.604zm3.222-.422zm2.547 1.385zm.718 4.34zm-1.894 1.883zm-1.766.893zm-13.148-5.652zM5.337 7.661zm8.633 1.936zm.209-3.539zm-1.681-2.246zm-4.149-.379zM6.256 5.514zm9.828 9.816zm6.089 3.191.607-.604-1.41-1.418-.607.604 1.41 1.418zm2.646-.857 2.547 1.385.955-1.757-2.547-1.385-.955 1.757zm3.038 4.137-1.894 1.883 1.41 1.418 1.894-1.883-1.41-1.418zm-3.048 2.49c-1.933.18-6.935.02-12.35-5.365l-1.41 1.418c5.909 5.876 11.534 6.163 13.946 5.938l-.186-1.991zm-12.35-5.365C7.297 13.793 6.442 9.477 6.336 7.604l-1.997.113c.134 2.357 1.193 7.141 6.71 12.627l1.41-1.418zm1.834-8.24.382-.38-1.41-1.418-.382.38 1.41 1.418zm.686-5.227-1.681-2.246-1.601 1.199 1.681 2.246 1.601-1.199zM7.644 2.724 5.551 4.805l1.41 1.418 2.093-2.081-1.41-1.418zm5.944 7.253c-.705-.709-.706-.708-.707-.707l-.002.002-.004.004-.008.009-.018.019-.042.048a2.067 2.067 0 0 0-.318.558c-.136.361-.209.838-.118 1.428.179 1.154.974 2.678 3.009 4.701l1.41-1.418c-1.905-1.894-2.358-3.046-2.443-3.59-.04-.259.001-.386.013-.416.007-.019.01-.021.002-.008a.315.315 0 0 1-.022.029c-.005.007-.012.014-.02.022l-.012.013-.007.007-.004.004-.002.002c-.001 0-.002.002-.707-.707zm1.791 6.062c2.036 2.024 3.567 2.812 4.723 2.99.591.091 1.067.018 1.428-.116.177-.066.318-.144.425-.215a1.73 1.73 0 0 0 .211-.168l.004-.004.002-.002s.002-.002-.703-.711-.704-.71-.703-.711l.002-.002.004-.004.007-.007.013-.012.022-.019a.554.554 0 0 1 .029-.022c.012-.008.01-.005-.01.003-.033.012-.163.054-.426.013-.551-.084-1.712-.538-3.616-2.431l-1.41 1.418zM13.298 3.213c-1.359-1.815-4.032-2.103-5.655-.489l1.41 1.418c.709-.705 1.968-.633 2.643.269l1.601-1.199zM6.336 7.604c-.026-.461.185-.944.625-1.381l-1.41-1.418c-.716.712-1.28 1.721-1.212 2.913l1.997-.113zm19.627 16.081c-.366.364-.759.57-1.154.606l.186 1.991c.979-.091 1.782-.586 2.379-1.179l-1.41-1.418zM14.675 10.306c1.313-1.305 1.41-3.37.304-4.847l-1.601 1.199c.538.719.458 1.662-.113 2.23l1.41 1.418zm12.692 8.743c1.09.593 1.26 1.987.49 2.752l1.41 1.418c1.787-1.777 1.236-4.742-.945-5.928l-.955 1.757zm-4.587-1.132c.512-.509 1.336-.635 2.039-.253l.955-1.757c-1.445-.785-3.238-.569-4.405.592l1.41 1.418z"
            />
        </symbol>
        <symbol id="icon-burger" viewBox="0 0 24 24">
            <path
                d="M2.571 6c0-.473.384-.857.857-.857h17.143a.857.857 0 0 1 0 1.714H3.428A.857.857 0 0 1 2.571 6zm0 6c0-.473.384-.857.857-.857h17.143a.857.857 0 0 1 0 1.714H3.428A.857.857 0 0 1 2.571 12zm.858 5.143a.857.857 0 0 0 0 1.714h17.143a.857.857 0 0 0 0-1.714H3.429z"
            />
        </symbol>
        <symbol id="icon-email" viewBox="0 0 20 20">
            <path
                d="M3.238 4.364c-.567.526-.946 1.38-.946 2.719v5.833c0 1.339.379 2.193.946 2.719.575.534 1.441.823 2.596.823h8.333c1.154 0 2.021-.289 2.596-.823.567-.526.946-1.38.946-2.719V7.083c0-1.339-.379-2.193-.946-2.719-.575-.534-1.441-.823-2.596-.823H5.834c-1.154 0-2.021.289-2.596.823zm-.851-.916c.883-.82 2.1-1.157 3.446-1.157h8.333c1.346 0 2.563.336 3.446 1.157.892.828 1.346 2.058 1.346 3.635v5.833c0 1.578-.454 2.807-1.346 3.635-.883.82-2.1 1.157-3.446 1.157H5.833c-1.346 0-2.563-.336-3.446-1.157-.892-.828-1.346-2.058-1.346-3.635V7.083c0-1.577.454-2.807 1.346-3.635z"
            />
            <path d="M16.136 6.092a.625.625 0 0 1-.112.877l-4.623 3.572a2.29 2.29 0 0 1-2.802 0L3.976 6.969a.625.625 0 0 1 .765-.989l4.623 3.572c.375.29.899.29 1.274 0l4.623-3.572a.625.625 0 0 1 .877.112z" />
        </symbol>
        <symbol id="icon-user" viewBox="0 0 24 24">
            <path
                d="M21.773 20.245c-.639-1.153-1.617-1.956-2.558-2.524s-1.86-.905-2.398-1.107c-.41-.152-.842-.349-1.139-.559a1.397 1.397 0 0 1-.324-.295c-.064-.088-.077-.143-.077-.186v-1.608a2.34 2.34 0 0 1 .191-.385c.118-.195.276-.391.434-.687.131-.247.249-.557.339-.963.08-.039.159-.084.237-.138.238-.164.439-.403.603-.716.166-.314.31-.708.462-1.241l-.001.004.001-.004c.079-.277.116-.52.116-.741.003-.355-.108-.663-.292-.871a1.03 1.03 0 0 0-.203-.177c.023-.273.065-.636.105-1.055.046-.486.087-1.041.087-1.616-.002-.91-.099-1.87-.484-2.699a3.05 3.05 0 0 0-.833-1.094 2.941 2.941 0 0 0-1.259-.581c-.335-.257-.659-.481-1.063-.637-.436-.169-.939-.247-1.604-.247-.21 0-.437.008-.685.023-.694.003-1.262.088-1.811.086-.383 0-.76-.037-1.198-.162l-.234-.067-.187.156c-.575.488-.883 1.215-1.072 2.024-.186.812-.247 1.724-.247 2.629 0 1.181.106 2.347.195 3.222a1.097 1.097 0 0 0-.201.164c-.198.207-.322.528-.319.9 0 .221.038.464.116.74v.001c.204.711.389 1.176.639 1.529.125.175.269.319.426.428.077.054.156.098.235.137.142.608.382 1.049.587 1.368.116.181.218.324.281.431.06.101.078.158.082.184v1.661c0 .033-.013.092-.084.187-.103.14-.328.318-.597.468a5.457 5.457 0 0 1-.851.382c-.732.259-2.121.765-3.35 1.749-.615.493-1.192 1.109-1.616 1.879s-.691 1.692-.69 2.765c0 .186.008.378.024.573l.035.421h20.812l.035-.421c.016-.195.024-.386.024-.572a5.615 5.615 0 0 0-.692-2.762zm-.23 2.836H2.456l-.003-.075c.001-.923.223-1.679.576-2.322.529-.962 1.371-1.673 2.225-2.188s1.709-.829 2.241-1.017c.42-.149.907-.364 1.322-.652.208-.145.399-.308.552-.51.152-.199.271-.451.271-.742v-1.724l-.003-.024a1.388 1.388 0 0 0-.208-.567c-.141-.235-.3-.44-.445-.706a3.258 3.258 0 0 1-.359-1.034l-.046-.263-.251-.09a1.1 1.1 0 0 1-.266-.129c-.102-.072-.196-.169-.316-.392-.118-.221-.248-.562-.39-1.063a1.83 1.83 0 0 1-.082-.489c.004-.197.047-.243.071-.273a.229.229 0 0 1 .121-.062l.399-.089-.043-.407c-.094-.893-.225-2.181-.225-3.456 0-.862.061-1.717.224-2.423.135-.596.348-1.07.612-1.371.424.097.817.132 1.184.132.648-.001 1.213-.088 1.836-.087h.015l.016-.001c.233-.014.442-.021.63-.021.598 0 .971.069 1.273.185s.561.294.911.567l.09.07.112.02c.41.074.714.22.96.418.366.296.612.734.767 1.276.155.54.211 1.174.21 1.804 0 .53-.039 1.058-.083 1.529s-.095.884-.117 1.205a4.235 4.235 0 0 1-.015.162l-.041.391.381.1a.216.216 0 0 1 .111.062c.023.03.064.081.067.269 0 .114-.02.275-.081.487v.001c-.189.668-.359 1.049-.503 1.248-.072.1-.134.159-.204.207s-.151.088-.266.129l-.251.09-.046.263a3.64 3.64 0 0 1-.19.708c-.105.262-.217.424-.362.638a3.568 3.568 0 0 0-.452.852l-.027.075v1.78c-.001.281.109.532.256.73.223.299.527.515.856.704.33.187.688.34 1.025.466.713.265 1.999.745 3.086 1.615.543.434 1.034.96 1.388 1.6.354.641.576 1.395.577 2.317l-.003.074z"
            />
        </symbol>
        <symbol id="icon-city" viewBox="0 0 20 20">
            <path
                d="M6.25 2.427 1.875 4.615v12.886h16.25V6.251h-7.5V4.615L6.25 2.427zm0 1.396 3.125 1.563V16.25h-6.25V5.386L6.25 3.823zM4.375 6.25V7.5h1.25V6.25h-1.25zm2.5 0V7.5h1.25V6.25h-1.25zm3.75 1.25h6.25v8.75h-6.25V7.5zm-6.25 1.25V10h1.25V8.75h-1.25zm2.5 0V10h1.25V8.75h-1.25zm5 0V10h1.25V8.75h-1.25zm2.5 0V10h1.25V8.75h-1.25zm-10 2.5v1.25h1.25v-1.25h-1.25zm2.5 0v1.25h1.25v-1.25h-1.25zm5 0v1.25h1.25v-1.25h-1.25zm2.5 0v1.25h1.25v-1.25h-1.25zm-10 2.5V15h1.25v-1.25h-1.25zm2.5 0V15h1.25v-1.25h-1.25zm5 0V15h1.25v-1.25h-1.25zm2.5 0V15h1.25v-1.25h-1.25z"
            />
        </symbol>
    </defs>
</svg>
